<svg xmlns="http://www.w3.org/2000/svg" viewBox="0 0 64 64">
  <rect width="64" height="64" rx="15" fill="#fbf7ef"/>
  <path d="M14 38c2 11 9 18 18 18s16-7 18-18" fill="none" stroke="#779878" stroke-width="6" stroke-linecap="round"/>
  <circle cx="32" cy="33" r="15" fill="#f5d5ad"/>
  <circle cx="27" cy="34" r="1.8" fill="#3f382f"/>
  <circle cx="37" cy="34" r="1.8" fill="#3f382f"/>
  <path d="M28 40c3 3 5 3 8 0M32 19v-7" fill="none" stroke="#a76532" stroke-width="2.5" stroke-linecap="round"/>
  <path d="M32 13c-6 0-9-3-10-8 6 0 9 3 10 8Z" fill="#e5a85f"/>
  <path d="M32 13c6 0 9-3 10-8-6 0-9 3-10 8Z" fill="#779878"/>
</svg>
